<svg width="16" height="10" viewBox="0 0 16 10" fill="none" xmlns="http://www.w3.org/2000/svg">
<path d="M15.7443 8.66131L15.2202 9.18905C15.0552 9.35387 14.8358 9.44467 14.6012 9.44467C14.3668 9.44467 14.1471 9.35387 13.9822 9.18905L8.00358 3.21021L2.0181 9.19569C1.85341 9.3605 1.6337 9.45117 1.3993 9.45117C1.16489 9.45117 0.945048 9.3605 0.780234 9.19569L0.256002 8.6712C-0.0853342 8.33012 -0.0853343 7.77454 0.256002 7.43346L7.38243 0.281409C7.54712 0.116725 7.76657 0.00069101 8.00306 0.000690968L8.00579 0.000690968C8.24033 0.000690927 8.45978 0.116854 8.62446 0.281409L15.7443 7.41408C15.9092 7.57876 15.9997 7.80485 16 8.03926C16 8.27379 15.9092 8.49676 15.7443 8.66131Z" fill="#242424"/>
</svg>
