<svg width="541" height="429" viewBox="0 0 541 429" fill="none" xmlns="http://www.w3.org/2000/svg">
<g clip-path="url(#clip0_2329_2525)">
<path fill-rule="evenodd" clip-rule="evenodd" d="M105.937 31.9522C128.687 14.2014 162.76 38.2694 190.729 45.3966C208.925 50.0335 223.973 62.8535 242.349 66.7144C256.007 69.5844 270.136 62.2411 283.827 64.9569C298.033 67.7743 308.695 84.5111 323.068 82.725C380.67 75.567 446.192 1.45783 490.171 39.3162C526.398 70.5021 392.622 105.906 403.93 152.333C416.947 205.783 524.441 190.702 539.9 243.499C550.617 280.102 474.669 284.33 451.437 314.586C429.585 343.044 439.322 392.371 409.857 412.856C380.497 433.268 335.736 433.015 303.569 417.39C266.631 399.447 256.374 350.603 225.644 323.373C211.781 311.087 192.967 302.309 174.449 302.973C134.432 304.406 77.2974 364.597 58.3066 329.368C36.9054 289.666 140.996 256.402 126.352 213.747C111.512 170.52 9.45517 206.491 0.721097 161.632C-6.79763 123.016 81.5929 141.763 106.386 111.205C123.178 90.508 84.9208 48.3496 105.937 31.9522Z" fill="#DBF0FB"/>
<path d="M394.169 161.108C369.726 143.508 331.44 126.862 289.13 115.44C250.606 105.04 213.032 100.02 183.32 101.301L183.165 97.9739C213.231 96.6765 251.195 101.74 290.064 112.233C332.768 123.761 371.468 140.603 396.241 158.44L394.169 161.108Z" fill="#3F3D56"/>
<path d="M391.632 174.665C391.654 190.259 388.26 205.681 381.671 219.926C381.121 221.118 380.548 222.3 379.952 223.47C368.493 246.076 349.419 264.275 325.841 275.1C302.263 285.924 275.574 288.734 250.124 283.071C224.675 277.409 201.969 263.609 185.71 243.921C169.45 224.234 160.596 199.821 160.593 174.665C160.593 172.09 160.683 169.534 160.865 166.999C160.952 165.71 161.064 164.429 161.201 163.155C164.265 134.797 178.514 108.653 201.008 90.1194C223.503 71.5854 252.527 62.0752 282.09 63.5518C311.652 65.0284 339.499 77.3786 359.882 98.0543C380.266 118.73 391.631 146.153 391.632 174.665Z" fill="#F2F2F2"/>
<path opacity="0.1" d="M381.671 219.926C381.122 221.119 380.548 222.3 379.953 223.471C376.577 223.824 373.024 224.08 369.293 224.24C366.204 224.373 363.026 224.44 359.778 224.44C331.41 224.44 297.269 219.397 262.392 209.983C223.523 199.489 188.359 184.812 163.373 168.652C162.522 168.103 161.686 167.552 160.865 167C160.952 165.711 161.064 164.43 161.201 163.156C162.526 164.066 163.892 164.976 165.3 165.887C189.991 181.854 224.803 196.375 263.325 206.775C297.899 216.109 331.717 221.109 359.761 221.109C362.967 221.109 366.092 221.043 369.137 220.912C373.571 220.719 377.749 220.39 381.671 219.926Z" fill="black"/>
<path d="M359.778 221.775C331.411 221.776 297.268 216.732 262.392 207.317C223.524 196.824 188.358 182.147 163.372 165.987C137.865 149.491 125.904 133.236 129.693 120.217C133.482 107.197 152.472 99.2983 183.165 97.9736L183.32 101.301C168.986 101.92 157.305 103.972 148.601 107.4C139.918 110.82 134.677 115.434 133.023 121.116C131.37 126.797 133.357 133.363 138.93 140.632C144.517 147.917 153.389 155.518 165.301 163.222C189.989 179.189 224.802 193.709 263.326 204.109C297.9 213.443 331.716 218.444 359.761 218.445C362.966 218.445 366.091 218.379 369.136 218.247C383.47 217.629 395.151 215.577 403.855 212.149C412.538 208.73 417.779 204.115 419.433 198.433C422.402 188.232 413.43 174.976 394.17 161.107L396.241 158.44C406.152 165.576 413.488 172.611 418.047 179.347C422.933 186.57 424.521 193.293 422.763 199.333C418.974 212.351 399.984 220.25 369.291 221.576C366.202 221.709 363.026 221.775 359.778 221.775Z" fill="#3F3D56"/>
<path d="M279.168 43.3361C279.9 43.3361 280.492 42.7652 280.492 42.0611C280.492 41.3569 279.9 40.7861 279.168 40.7861C278.437 40.7861 277.845 41.3569 277.845 42.0611C277.845 42.7652 278.437 43.3361 279.168 43.3361Z" fill="#F2F2F2"/>
<path d="M103.551 98.6602C104.809 98.6602 105.828 97.6782 105.828 96.4671C105.828 95.2554 104.809 94.2734 103.551 94.2734C102.293 94.2734 101.274 95.2554 101.274 96.4671C101.274 97.6782 102.293 98.6602 103.551 98.6602Z" fill="#CCCCCC"/>
<path d="M98.6971 186.647C101.182 186.647 103.196 184.707 103.196 182.313C103.196 179.92 101.182 177.98 98.6971 177.98C96.2129 177.98 94.199 179.92 94.199 182.313C94.199 184.707 96.2129 186.647 98.6971 186.647Z" fill="#CCCCCC"/>
<path d="M146.731 357.837C149.215 357.837 151.229 355.897 151.229 353.504C151.229 351.111 149.215 349.171 146.731 349.171C144.246 349.171 142.232 351.111 142.232 353.504C142.232 355.897 144.246 357.837 146.731 357.837Z" fill="#CCCCCC"/>
<path d="M368.742 52.5988C370.398 52.5988 371.74 51.3059 371.74 49.711C371.74 48.1161 370.398 46.8232 368.742 46.8232C367.086 46.8232 365.743 48.1161 365.743 49.711C365.743 51.3059 367.086 52.5988 368.742 52.5988Z" fill="#CCCCCC"/>
<path d="M475.082 174.253C477.771 174.253 479.951 172.154 479.951 169.564C479.951 166.975 477.771 164.876 475.082 164.876C472.394 164.876 470.215 166.975 470.215 169.564C470.215 172.154 472.394 174.253 475.082 174.253Z" fill="#CCCCCC"/>
<path d="M437.016 96.6902C438.17 96.6902 439.105 95.7894 439.105 94.6789C439.105 93.5678 438.17 92.667 437.016 92.667C435.863 92.667 434.928 93.5678 434.928 94.6789C434.928 95.7894 435.863 96.6902 437.016 96.6902Z" fill="#CCCCCC"/>
<path d="M183.417 71.9739C185.217 71.9739 186.676 70.5688 186.676 68.8359C186.676 67.1024 185.217 65.6973 183.417 65.6973C181.618 65.6973 180.159 67.1024 180.159 68.8359C180.159 70.5688 181.618 71.9739 183.417 71.9739Z" fill="#CCCCCC"/>
<path d="M429.706 162.069C430.86 162.069 431.795 161.168 431.795 160.057C431.795 158.947 430.86 158.046 429.706 158.046C428.553 158.046 427.617 158.947 427.617 160.057C427.617 161.168 428.553 162.069 429.706 162.069Z" fill="#CCCCCC"/>
<path d="M23.3823 169.963C24.818 169.963 25.9819 168.841 25.9819 167.459C25.9819 166.076 24.818 164.955 23.3823 164.955C21.9466 164.955 20.7827 166.076 20.7827 167.459C20.7827 168.841 21.9466 169.963 23.3823 169.963Z" fill="#CCCCCC"/>
<path d="M62.875 128.966C64.4298 128.966 65.6902 127.753 65.6902 126.256C65.6902 124.758 64.4298 123.544 62.875 123.544C61.3202 123.544 60.0598 124.758 60.0598 126.256C60.0598 127.753 61.3202 128.966 62.875 128.966Z" fill="#CCCCCC"/>
<path d="M125.563 385.097C127.118 385.097 128.378 383.884 128.378 382.386C128.378 380.888 127.118 379.675 125.563 379.675C124.009 379.675 122.748 380.888 122.748 382.386C122.748 383.884 124.009 385.097 125.563 385.097Z" fill="#CCCCCC"/>
<path d="M243.635 5.35045H238.08V0H235.099V5.35045H229.541V8.22375H235.099V13.5742H238.08V8.22375H243.635V5.35045Z" fill="#CCCCCC"/>
<path d="M372.504 294.876H369.015V291.517H367.144V294.876H363.656V296.678H367.144V300.038H369.015V296.678H372.504V294.876Z" fill="#CCCCCC"/>
<path d="M453.018 277.679H450.411V275.168H449.011V277.679H446.403V279.028H449.011V281.539H450.411V279.028H453.018V277.679Z" fill="#CCCCCC"/>
<path opacity="0.1" d="M203.273 165.315C208.634 165.315 212.981 161.129 212.981 155.965C212.981 150.801 208.634 146.615 203.273 146.615C197.912 146.615 193.566 150.801 193.566 155.965C193.566 161.129 197.912 165.315 203.273 165.315Z" fill="black"/>
<path opacity="0.1" d="M310.497 259.237C315.858 259.237 320.204 255.05 320.204 249.887C320.204 244.723 315.858 240.537 310.497 240.537C305.136 240.537 300.79 244.723 300.79 249.887C300.79 255.05 305.136 259.237 310.497 259.237Z" fill="black"/>
<path opacity="0.1" d="M277.845 179.765C283.206 179.765 287.552 175.579 287.552 170.415C287.552 165.251 283.206 161.065 277.845 161.065C272.483 161.065 268.137 165.251 268.137 170.415C268.137 175.579 272.483 179.765 277.845 179.765Z" fill="black"/>
<path opacity="0.1" d="M208.127 231.188C213.488 231.188 217.835 227.002 217.835 221.838C217.835 216.674 213.488 212.488 208.127 212.488C202.766 212.488 198.42 216.674 198.42 221.838C198.42 227.002 202.766 231.188 208.127 231.188Z" fill="black"/>
<path opacity="0.1" d="M329.912 129.616C335.273 129.616 339.619 125.43 339.619 120.266C339.619 115.103 335.273 110.917 329.912 110.917C324.551 110.917 320.204 115.103 320.204 120.266C320.204 125.43 324.551 129.616 329.912 129.616Z" fill="black"/>
<path opacity="0.1" d="M362.123 192.939C367.484 192.939 371.831 188.753 371.831 183.589C371.831 178.425 367.484 174.239 362.123 174.239C356.762 174.239 352.416 178.425 352.416 183.589C352.416 188.753 356.762 192.939 362.123 192.939Z" fill="black"/>
<path d="M329.912 93.4918C336.979 93.4918 342.708 87.9738 342.708 81.1676C342.708 74.3607 336.979 68.8428 329.912 68.8428C322.845 68.8428 317.116 74.3607 317.116 81.1676C317.116 87.9738 322.845 93.4918 329.912 93.4918Z" fill="white"/>
<path d="M329.912 63.3184C325.114 63.3184 320.512 65.1541 317.12 68.4219C313.727 71.6897 311.821 76.1218 311.821 80.7428C311.821 90.3658 329.912 121.966 329.912 121.966C329.912 121.966 348.003 90.3658 348.003 80.7428C348.003 76.1218 346.097 71.6897 342.704 68.4219C339.312 65.1541 334.71 63.3184 329.912 63.3184ZM329.912 89.2423C328.254 89.2423 326.633 88.7692 325.254 87.8814C323.875 86.9942 322.801 85.7331 322.166 84.2579C321.532 82.782 321.366 81.1589 321.689 79.5921C322.013 78.026 322.811 76.5872 323.984 75.4579C325.156 74.3286 326.65 73.5595 328.276 73.248C329.903 72.9365 331.588 73.0968 333.12 73.7075C334.652 74.3189 335.962 75.354 336.883 76.6819C337.803 78.0098 338.296 79.5707 338.296 81.1679C338.296 82.2284 338.079 83.2779 337.657 84.2579C337.236 85.2373 336.618 86.1277 335.84 86.8773C335.061 87.6276 334.137 88.2221 333.12 88.6277C332.103 89.0334 331.013 89.2423 329.912 89.2423Z" fill="#42B2E9"/>
<path d="M203.223 126.922C210.291 126.922 216.019 121.404 216.019 114.597C216.019 107.79 210.291 102.272 203.223 102.272C196.156 102.272 190.427 107.79 190.427 114.597C190.427 121.404 196.156 126.922 203.223 126.922Z" fill="white"/>
<path d="M203.223 96.748C198.426 96.748 193.823 98.5841 190.431 101.851C187.038 105.119 185.132 109.551 185.132 114.172C185.132 123.796 203.223 155.396 203.223 155.396C203.223 155.396 221.314 123.796 221.314 114.172C221.314 109.551 219.408 105.119 216.015 101.851C212.623 98.5841 208.021 96.748 203.223 96.748ZM203.223 122.672C201.565 122.672 199.944 122.199 198.566 121.311C197.187 120.424 196.112 119.163 195.478 117.687C194.843 116.212 194.678 114.588 195.001 113.022C195.324 111.455 196.123 110.017 197.295 108.888C198.468 107.759 199.962 106.99 201.588 106.678C203.214 106.366 204.9 106.526 206.431 107.138C207.964 107.748 209.273 108.783 210.194 110.111C211.115 111.439 211.607 113 211.607 114.597C211.607 115.658 211.39 116.708 210.969 117.687C210.548 118.667 209.93 119.557 209.151 120.307C208.373 121.057 207.449 121.651 206.431 122.058C205.414 122.463 204.325 122.672 203.223 122.672Z" fill="#242424"/>
<path d="M363.753 155.337C370.821 155.337 376.55 149.82 376.55 143.013C376.55 136.206 370.821 130.688 363.753 130.688C356.687 130.688 350.957 136.206 350.957 143.013C350.957 149.82 356.687 155.337 363.753 155.337Z" fill="white"/>
<path d="M363.753 125.164C358.955 125.164 354.354 127 350.961 130.268C347.568 133.536 345.662 137.967 345.662 142.589C345.662 152.212 363.753 183.812 363.753 183.812C363.753 183.812 381.845 152.212 381.845 142.589C381.845 137.967 379.939 133.536 376.546 130.268C373.153 127 368.552 125.164 363.753 125.164ZM363.753 151.088C362.095 151.088 360.474 150.615 359.095 149.727C357.717 148.84 356.642 147.579 356.008 146.104C355.373 144.628 355.207 143.005 355.531 141.438C355.855 139.872 356.653 138.433 357.825 137.304C358.998 136.175 360.492 135.406 362.118 135.094C363.744 134.782 365.43 134.942 366.962 135.554C368.494 136.165 369.803 137.199 370.725 138.527C371.646 139.855 372.137 141.417 372.137 143.013C372.137 144.074 371.92 145.124 371.499 146.104C371.078 147.083 370.46 147.974 369.682 148.723C368.903 149.473 367.979 150.068 366.962 150.474C365.945 150.879 364.854 151.088 363.753 151.088Z" fill="#CCCCCC"/>
<path d="M146.821 217.183C153.888 217.183 159.617 211.665 159.617 204.858C159.617 198.051 153.888 192.534 146.821 192.534C139.754 192.534 134.024 198.051 134.024 204.858C134.024 211.665 139.754 217.183 146.821 217.183Z" fill="white"/>
<path d="M146.821 187.009C142.023 187.009 137.421 188.845 134.028 192.113C130.636 195.38 128.729 199.812 128.729 204.433C128.729 214.057 146.821 245.657 146.821 245.657C146.821 245.657 164.912 214.057 164.912 204.433C164.912 199.812 163.006 195.38 159.613 192.113C156.22 188.845 151.619 187.009 146.821 187.009ZM146.821 212.933C145.163 212.933 143.542 212.459 142.163 211.572C140.785 210.685 139.71 209.424 139.075 207.948C138.441 206.473 138.275 204.849 138.598 203.283C138.921 201.717 139.72 200.278 140.893 199.149C142.065 198.019 143.559 197.25 145.185 196.939C146.812 196.627 148.497 196.787 150.029 197.398C151.561 198.009 152.871 199.044 153.791 200.372C154.713 201.7 155.205 203.261 155.205 204.858C155.205 205.919 154.988 206.969 154.566 207.948C154.145 208.928 153.528 209.818 152.749 210.568C151.97 211.318 151.046 211.912 150.029 212.318C149.012 212.724 147.922 212.933 146.821 212.933Z" fill="#42B2E9"/>
<path d="M441.362 303.819C443.847 301.816 440.49 294.015 433.865 286.394C427.24 278.773 419.856 274.219 417.372 276.222C414.888 278.225 418.245 286.027 424.869 293.648C431.495 301.269 438.879 305.823 441.362 303.819Z" fill="#242424"/>
<path d="M389.619 319.764C410.259 319.764 426.99 303.649 426.99 283.771C426.99 263.892 410.259 247.777 389.619 247.777C368.98 247.777 352.248 263.892 352.248 283.771C352.248 303.649 368.98 319.764 389.619 319.764Z" fill="#242424"/>
<path d="M405.437 312.019H394.084V331.61H405.437V312.019Z" fill="#242424"/>
<path d="M382.731 312.019H371.377V331.61H382.731V312.019Z" fill="#242424"/>
<path d="M395.976 335.255C401.201 335.255 405.437 333.725 405.437 331.838C405.437 329.951 401.201 328.421 395.976 328.421C390.751 328.421 386.515 329.951 386.515 331.838C386.515 333.725 390.751 335.255 395.976 335.255Z" fill="#242424"/>
<path d="M373.269 334.799C378.495 334.799 382.731 333.269 382.731 331.382C382.731 329.495 378.495 327.965 373.269 327.965C368.044 327.965 363.809 329.495 363.809 331.382C363.809 333.269 368.044 334.799 373.269 334.799Z" fill="#242424"/>
<path d="M377.885 238.526C381.222 225.582 395.952 217.965 410.785 221.513C425.618 225.061 434.937 238.429 431.6 251.372C428.264 264.316 417.193 264.357 402.36 260.81C387.526 257.262 374.548 251.469 377.885 238.526Z" fill="#42B2E9"/>
<path d="M364.41 274.782C365.798 271.963 359.365 266.224 350.041 261.965C340.717 257.706 332.032 256.538 330.645 259.358C329.256 262.177 335.69 267.915 345.013 272.174C354.337 276.434 363.021 277.601 364.41 274.782Z" fill="#242424"/>
<path d="M384.032 288.176C390.914 288.176 396.492 282.803 396.492 276.176C396.492 269.548 390.914 264.176 384.032 264.176C377.151 264.176 371.573 269.548 371.573 276.176C371.573 282.803 377.151 288.176 384.032 288.176Z" fill="white"/>
<path d="M378.911 275.875C381.205 275.875 383.064 274.083 383.064 271.874C383.064 269.665 381.205 267.874 378.911 267.874C376.618 267.874 374.758 269.665 374.758 271.874C374.758 274.083 376.618 275.875 378.911 275.875Z" fill="#3F3D56"/>
<path d="M391.848 301.178C392.044 302.212 392.026 303.272 391.796 304.299C391.565 305.326 391.127 306.299 390.507 307.163C389.886 308.027 389.095 308.765 388.178 309.334C387.261 309.904 386.237 310.293 385.164 310.482C384.091 310.67 382.99 310.653 381.923 310.431C380.857 310.209 379.847 309.787 378.949 309.189C378.053 308.592 377.287 307.83 376.696 306.946C376.104 306.064 375.7 305.077 375.504 304.044L375.501 304.028C374.684 299.681 378.174 298.142 382.688 297.355C387.202 296.568 391.031 296.831 391.848 301.178Z" fill="white"/>
<path d="M312.655 207.305C308.812 204.181 304.108 202.201 299.117 201.605C294.126 201.009 289.063 201.823 284.543 203.948C280.024 206.073 276.243 209.417 273.662 213.574C271.079 217.731 269.808 222.521 270.001 227.361C270.193 232.201 271.842 236.883 274.748 240.837C277.653 244.791 281.689 247.846 286.364 249.631C291.04 251.416 296.153 251.854 301.082 250.891C306.011 249.928 310.542 247.606 314.126 244.208L345.949 270.07C346.434 270.464 347.06 270.656 347.692 270.604C348.323 270.553 348.907 270.263 349.316 269.797C349.726 269.33 349.926 268.727 349.873 268.119C349.82 267.511 349.52 266.948 349.036 266.553L349.033 266.55L317.21 240.688C320.906 235.578 322.489 229.322 321.646 223.147C320.804 216.972 317.598 211.323 312.655 207.305ZM310.604 238.198C308.124 241.027 304.83 243.085 301.136 244.112C297.443 245.138 293.516 245.086 289.853 243.964C286.19 242.841 282.955 240.696 280.557 237.802C278.159 234.908 276.706 231.395 276.381 227.705C276.057 224.016 276.875 220.317 278.734 217.075C280.592 213.834 283.406 211.197 286.821 209.496C290.236 207.795 294.097 207.108 297.918 207.521C301.738 207.935 305.345 209.429 308.284 211.817C312.223 215.019 314.681 219.598 315.117 224.544C315.552 229.492 313.928 234.403 310.604 238.198Z" fill="#3F3D56"/>
<path opacity="0.3" d="M283.214 240.434C279.485 237.403 277.076 233.132 276.465 228.47C275.854 223.808 277.086 219.094 279.916 215.267C279.544 215.627 279.185 216.005 278.838 216.399C277.192 218.278 275.946 220.451 275.172 222.793C274.398 225.136 274.11 227.602 274.326 230.052C274.541 232.502 275.255 234.886 276.428 237.07C277.6 239.254 279.208 241.194 281.158 242.78C283.109 244.365 285.365 245.565 287.798 246.31C290.23 247.056 292.791 247.333 295.334 247.126C297.877 246.918 300.354 246.23 302.621 245.101C304.888 243.972 306.902 242.423 308.549 240.544C308.895 240.15 309.221 239.745 309.526 239.331C306.085 242.662 301.468 244.624 296.593 244.828C291.719 245.032 286.943 243.464 283.214 240.434Z" fill="black"/>
<path d="M149.193 258.608C152.877 249.324 153.41 240.895 150.384 239.78C147.358 238.667 141.918 245.29 138.234 254.574C134.549 263.858 134.016 272.288 137.042 273.401C140.068 274.516 145.508 267.893 149.193 258.608Z" fill="#242424"/>
<path d="M109.172 319.764C129.811 319.764 146.542 303.649 146.542 283.771C146.542 263.892 129.811 247.777 109.172 247.777C88.5317 247.777 71.8004 263.892 71.8004 283.771C71.8004 303.649 88.5317 319.764 109.172 319.764Z" fill="#242424"/>
<path d="M103.495 312.019H92.1414V331.61H103.495V312.019Z" fill="#242424"/>
<path d="M126.201 312.019H114.848V331.61H126.201V312.019Z" fill="#242424"/>
<path d="M101.602 335.255C106.828 335.255 111.063 333.725 111.063 331.838C111.063 329.951 106.828 328.421 101.602 328.421C96.3772 328.421 92.1414 329.951 92.1414 331.838C92.1414 333.725 96.3772 335.255 101.602 335.255Z" fill="#242424"/>
<path d="M124.309 334.799C129.534 334.799 133.77 333.269 133.77 331.382C133.77 329.495 129.534 327.965 124.309 327.965C119.084 327.965 114.848 329.495 114.848 331.382C114.848 333.269 119.084 334.799 124.309 334.799Z" fill="#242424"/>
<path d="M110.117 286.96C117.172 286.96 122.89 281.453 122.89 274.659C122.89 267.865 117.172 262.357 110.117 262.357C103.063 262.357 97.345 267.865 97.345 274.659C97.345 281.453 103.063 286.96 110.117 286.96Z" fill="white"/>
<path d="M110.117 278.76C112.469 278.76 114.375 276.923 114.375 274.659C114.375 272.394 112.469 270.559 110.117 270.559C107.766 270.559 105.86 272.394 105.86 274.659C105.86 276.923 107.766 278.76 110.117 278.76Z" fill="#3F3D56"/>
<path d="M72.9201 250.298C69.9027 237.283 79.5484 224.13 94.4646 220.923C109.381 217.715 123.92 225.665 126.937 238.681C129.954 251.697 120.069 256.497 105.153 259.706C90.2366 262.913 75.9381 263.314 72.9201 250.298Z" fill="#42B2E9"/>
<path d="M83.9622 274.782C85.3507 271.963 78.9172 266.224 69.5935 261.965C60.2691 257.706 51.585 256.538 50.1967 259.358C48.8084 262.177 55.2417 267.916 64.5658 272.175C73.8897 276.434 82.5743 277.602 83.9622 274.782Z" fill="#242424"/>
<path d="M90.8152 296.755C90.8152 300.278 100.232 307.234 110.683 307.234C121.133 307.234 130.932 297.317 130.932 293.794C130.932 290.271 121.133 294.477 110.683 294.477C100.232 294.477 90.8152 293.233 90.8152 296.755Z" fill="white"/>
<path d="M230.409 384.953C251.049 384.953 267.781 368.838 267.781 348.959C267.781 329.081 251.049 312.966 230.409 312.966C209.77 312.966 193.039 329.081 193.039 348.959C193.039 368.838 209.77 384.953 230.409 384.953Z" fill="#242424"/>
<path d="M224.733 377.207H213.38V396.798H224.733V377.207Z" fill="#242424"/>
<path d="M247.44 377.207H236.086V396.798H247.44V377.207Z" fill="#242424"/>
<path d="M222.841 400.444C228.066 400.444 232.302 398.914 232.302 397.026C232.302 395.139 228.066 393.609 222.841 393.609C217.616 393.609 213.38 395.139 213.38 397.026C213.38 398.914 217.616 400.444 222.841 400.444Z" fill="#242424"/>
<path d="M245.547 399.987C250.773 399.987 255.008 398.458 255.008 396.57C255.008 394.683 250.773 393.153 245.547 393.153C240.322 393.153 236.086 394.683 236.086 396.57C236.086 398.458 240.322 399.987 245.547 399.987Z" fill="#242424"/>
<path d="M194.159 315.486C191.141 302.47 200.787 289.318 215.703 286.11C230.619 282.903 245.157 290.853 248.175 303.869C251.193 316.885 241.307 321.685 226.391 324.893C211.474 328.101 197.176 328.501 194.159 315.486Z" fill="#3F3D56"/>
<path d="M230.56 342.722C230.56 342.722 233.271 331.234 228.12 331.756C222.969 332.278 215.921 332.539 214.024 332.539C212.126 332.539 201.283 331.234 199.656 338.022C198.029 344.811 195.861 353.166 200.469 358.388C200.469 358.388 202.096 381.364 208.33 382.931C214.565 384.497 231.102 386.325 237.066 378.753C238.812 376.501 240.031 373.911 240.64 371.162C241.248 368.413 241.231 365.569 240.59 362.827H237.879L230.56 342.722Z" fill="#42B2E9"/>
<path opacity="0.1" d="M203.18 360.216C203.18 360.216 207.789 362.304 217.277 360.999V364.915L203.18 363.871V360.216Z" fill="black"/>
<path d="M237.621 373.307L234.552 371.745L248.201 346.868C248.714 345.934 248.97 344.89 248.947 343.834C248.924 342.778 248.621 341.745 248.067 340.833C247.514 339.921 246.728 339.16 245.784 338.622C244.84 338.084 243.77 337.787 242.673 337.759L228.349 337.387L228.443 334.045L242.767 334.416C244.453 334.46 246.1 334.917 247.552 335.745C249.004 336.573 250.213 337.744 251.064 339.146C251.915 340.549 252.381 342.138 252.417 343.763C252.453 345.387 252.058 346.994 251.27 348.43L237.621 373.307Z" fill="#42B2E9"/>
<path d="M204.632 373.307L190.983 348.43C190.194 346.994 189.799 345.387 189.836 343.763C189.872 342.138 190.337 340.549 191.189 339.146C192.04 337.744 193.249 336.573 194.7 335.745C196.152 334.917 197.799 334.46 199.485 334.416L213.81 334.045L213.903 337.387L199.579 337.759C198.483 337.787 197.412 338.084 196.468 338.622C195.524 339.161 194.739 339.921 194.185 340.833C193.632 341.745 193.329 342.778 193.306 343.834C193.282 344.89 193.539 345.934 194.051 346.868L207.7 371.745L204.632 373.307Z" fill="#42B2E9"/>
<path d="M278.329 358.194C280.009 355.133 273.167 348.473 263.046 343.316C252.925 338.159 243.357 336.46 241.677 339.52C239.996 342.58 246.838 349.242 256.959 354.398C267.081 359.555 276.648 361.254 278.329 358.194Z" fill="#242424"/>
<path d="M464.043 121.858C465.301 121.858 466.321 120.876 466.321 119.665C466.321 118.454 465.301 117.472 464.043 117.472C462.786 117.472 461.766 118.454 461.766 119.665C461.766 120.876 462.786 121.858 464.043 121.858Z" fill="#CCCCCC"/>
<path d="M179.652 379.619C181.307 379.619 182.65 378.179 182.65 376.402C182.65 374.625 181.307 373.185 179.652 373.185C177.996 373.185 176.653 374.625 176.653 376.402C176.653 378.179 177.996 379.619 179.652 379.619Z" fill="#CCCCCC"/>
<path d="M442.033 390.652C443.689 390.652 445.031 389.212 445.031 387.435C445.031 385.658 443.689 384.218 442.033 384.218C440.377 384.218 439.035 385.658 439.035 387.435C439.035 389.212 440.377 390.652 442.033 390.652Z" fill="#CCCCCC"/>
</g>
<defs>
<clipPath id="clip0_2329_2525">
<rect width="541" height="429" fill="white"/>
</clipPath>
</defs>
</svg>
