<svg width="99" height="50" viewBox="0 0 99 50" fill="none" xmlns="http://www.w3.org/2000/svg">
<path d="M1.30352 49.0725H0.734375V43.0338H1.30352V49.0725Z" fill="white"/>
<path d="M2.99839 49.0725H2.43343V43.0338H2.99839L6.53879 48.0765H6.56808V43.0338H7.13304V49.0725H6.58064L3.02768 44.0256H2.99839V49.0725Z" fill="white"/>
<path d="M7.9742 47.432H8.54752C8.57821 47.7947 8.74979 48.0891 9.06226 48.3151C9.37473 48.5382 9.76672 48.6498 10.2382 48.6498C10.6902 48.6498 11.0612 48.5396 11.3514 48.3192C11.6443 48.0988 11.7908 47.8185 11.7908 47.4781C11.7908 47.1963 11.689 46.9675 11.4853 46.7918C11.2816 46.6132 10.9552 46.4667 10.506 46.3524L9.75695 46.1598C9.19618 46.0176 8.78606 45.8223 8.5266 45.574C8.26993 45.3257 8.14159 45.0034 8.14159 44.6073C8.14159 44.1218 8.33689 43.7229 8.72747 43.4104C9.11806 43.0951 9.61188 42.9375 10.2089 42.9375C10.7948 42.9375 11.2816 43.0937 11.6694 43.4062C12.06 43.7159 12.2637 44.1107 12.2804 44.5905H11.7071C11.6792 44.2502 11.5272 43.9767 11.2509 43.7703C10.9747 43.561 10.6218 43.4564 10.1922 43.4564C9.7709 43.4564 9.42216 43.5624 9.14596 43.7745C8.87255 43.9837 8.73584 44.2543 8.73584 44.5863C8.73584 44.8458 8.83488 45.0578 9.03297 45.2224C9.23105 45.3843 9.55329 45.5224 9.99967 45.6367L10.6525 45.8041C11.2607 45.9576 11.7001 46.1598 11.9707 46.4109C12.2414 46.662 12.3767 46.9968 12.3767 47.4153C12.3767 47.9454 12.1786 48.3709 11.7824 48.6917C11.3863 49.0097 10.8548 49.1688 10.188 49.1688C9.55747 49.1688 9.03855 49.0097 8.63122 48.6917C8.22389 48.3709 8.00489 47.951 7.9742 47.432Z" fill="white"/>
<path d="M13.7828 43.0338V46.9299C13.7828 47.4432 13.9404 47.8561 14.2557 48.1686C14.5709 48.4811 15.002 48.6373 15.5488 48.6373C16.0956 48.6373 16.5267 48.4811 16.8419 48.1686C17.1572 47.8561 17.3148 47.4432 17.3148 46.9299V43.0338H17.8882V46.9633C17.8882 47.6218 17.6775 48.1546 17.2562 48.562C16.835 48.9665 16.2658 49.1688 15.5488 49.1688C14.8318 49.1688 14.2627 48.9665 13.8414 48.562C13.4229 48.1546 13.2137 47.6218 13.2137 46.9633V43.0338H13.7828Z" fill="white"/>
<path d="M19.583 43.5443V46.0929H21.1272C21.5653 46.0929 21.9056 45.9813 22.1483 45.7581C22.3939 45.5349 22.5166 45.221 22.5166 44.8165C22.5166 44.4175 22.3911 44.1065 22.14 43.8833C21.8917 43.6573 21.5471 43.5443 21.1063 43.5443H19.583ZM19.583 46.5993V49.0725H19.0139V43.0338H21.1733C21.7619 43.0338 22.2306 43.1942 22.5794 43.515C22.9309 43.8331 23.1067 44.2613 23.1067 44.7998C23.1067 45.2266 22.9923 45.5921 22.7635 45.8962C22.5347 46.2003 22.2181 46.404 21.8136 46.5072L23.2741 49.0725H22.6087L21.2193 46.5993H19.583Z" fill="white"/>
<path d="M28.049 49.0725L27.3794 47.2228H24.8434L24.1738 49.0725H23.567L25.8268 43.0338H26.396L28.6516 49.0725H28.049ZM26.0989 43.741L25.015 46.729H27.2079L26.124 43.741H26.0989Z" fill="white"/>
<path d="M29.882 49.0725H29.317V43.0338H29.882L33.4224 48.0765H33.4517V43.0338H34.0166V49.0725H33.4642L29.9113 44.0256H29.882V49.0725Z" fill="white"/>
<path d="M37.5989 49.1688C36.7759 49.1688 36.1216 48.887 35.6362 48.3234C35.1507 47.7571 34.908 46.9954 34.908 46.0385C34.908 45.0927 35.1507 44.3394 35.6362 43.7787C36.1244 43.2179 36.7786 42.9375 37.5989 42.9375C38.0202 42.9375 38.4066 43.0226 38.7581 43.1928C39.1124 43.363 39.4026 43.6015 39.6285 43.9084C39.8545 44.2153 39.994 44.5626 40.047 44.9504H39.4737C39.39 44.5152 39.1738 44.1595 38.825 43.8833C38.4763 43.6071 38.0676 43.469 37.5989 43.469C36.9572 43.469 36.4453 43.7019 36.063 44.1679C35.6836 44.631 35.4939 45.2545 35.4939 46.0385C35.4939 46.8336 35.6836 47.4655 36.063 47.9342C36.4453 48.4029 36.9586 48.6373 37.6031 48.6373C38.0857 48.6373 38.4958 48.5159 38.8334 48.2732C39.171 48.0305 39.3844 47.7013 39.4737 47.2856H40.047C39.941 47.8743 39.6704 48.336 39.2352 48.6708C38.7999 49.0028 38.2545 49.1688 37.5989 49.1688Z" fill="white"/>
<path d="M44.5374 48.5536V49.0725H40.8924V43.0338H44.5374V43.5527H41.4615V45.7246H44.3825V46.2352H41.4615V48.5536H44.5374Z" fill="white"/>
<path d="M49.8605 49.1688C49.0375 49.1688 48.3833 48.887 47.8978 48.3234C47.4124 47.7571 47.1697 46.9954 47.1697 46.0385C47.1697 45.0927 47.4124 44.3394 47.8978 43.7787C48.3861 43.2179 49.0403 42.9375 49.8605 42.9375C50.2818 42.9375 50.6682 43.0226 51.0197 43.1928C51.3741 43.363 51.6642 43.6015 51.8902 43.9084C52.1162 44.2153 52.2557 44.5626 52.3087 44.9504H51.7354C51.6517 44.5152 51.4354 44.1595 51.0867 43.8833C50.738 43.6071 50.3292 43.469 49.8605 43.469C49.2189 43.469 48.7069 43.7019 48.3247 44.1679C47.9453 44.631 47.7556 45.2545 47.7556 46.0385C47.7556 46.8336 47.9453 47.4655 48.3247 47.9342C48.7069 48.4029 49.2203 48.6373 49.8647 48.6373C50.3474 48.6373 50.7575 48.5159 51.0951 48.2732C51.4327 48.0305 51.6461 47.7013 51.7354 47.2856H52.3087C52.2027 47.8743 51.9321 48.336 51.4968 48.6708C51.0616 49.0028 50.5162 49.1688 49.8605 49.1688Z" fill="white"/>
<path d="M55.6524 42.9375C56.495 42.9375 57.1631 43.2179 57.6569 43.7787C58.1508 44.3394 58.3977 45.0983 58.3977 46.0552C58.3977 47.0122 58.1508 47.771 57.6569 48.3318C57.1631 48.8898 56.495 49.1688 55.6524 49.1688C54.8098 49.1688 54.1417 48.8898 53.6478 48.3318C53.1568 47.771 52.9113 47.0122 52.9113 46.0552C52.9113 45.0983 53.1582 44.3394 53.652 43.7787C54.1458 43.2179 54.8126 42.9375 55.6524 42.9375ZM57.2259 44.1679C56.8381 43.7019 56.3136 43.469 55.6524 43.469C54.9912 43.469 54.4667 43.7019 54.0789 44.1679C53.6911 44.6338 53.4972 45.2629 53.4972 46.0552C53.4972 46.8448 53.6911 47.4725 54.0789 47.9384C54.4695 48.4043 54.994 48.6373 55.6524 48.6373C56.3136 48.6373 56.8381 48.4043 57.2259 47.9384C57.6165 47.4725 57.8118 46.8448 57.8118 46.0552C57.8118 45.2629 57.6165 44.6338 57.2259 44.1679Z" fill="white"/>
<path d="M65.106 43.0338V49.0725H64.5704V44.1176H64.5452L62.4444 49.0432H61.9464L59.8498 44.1176H59.8247V49.0725H59.2891V43.0338H59.9461L62.185 48.3192H62.2101L64.4448 43.0338H65.106Z" fill="white"/>
<path d="M66.2359 43.0338H68.3786C68.9533 43.0338 69.4192 43.2067 69.7763 43.5527C70.1362 43.8986 70.3162 44.352 70.3162 44.9128C70.3162 45.4735 70.1362 45.9283 69.7763 46.277C69.4164 46.623 68.9491 46.7959 68.3744 46.7959H66.8051V49.0725H66.2359V43.0338ZM66.8051 43.5443V46.2854H68.2447C68.7078 46.2854 69.0705 46.164 69.3327 45.9213C69.5978 45.6786 69.7303 45.3424 69.7303 44.9128C69.7303 44.4831 69.5992 44.1483 69.3369 43.9084C69.0747 43.6657 68.7106 43.5443 68.2447 43.5443H66.8051Z" fill="white"/>
<path d="M74.6098 49.0725L73.9403 47.2228H71.4043L70.7347 49.0725H70.1279L72.3877 43.0338H72.9568L75.2125 49.0725H74.6098ZM72.6597 43.741L71.5758 46.729H73.7687L72.6848 43.741H72.6597Z" fill="white"/>
<path d="M76.4428 49.0725H75.8779V43.0338H76.4428L79.9832 48.0765H80.0125V43.0338H80.5775V49.0725H80.0251L76.4721 44.0256H76.4428V49.0725Z" fill="white"/>
<path d="M83.984 49.0725H83.4106V46.4612L81.2471 43.0338H81.8999L83.6868 45.9004H83.7078L85.4947 43.0338H86.1475L83.984 46.4612V49.0725Z" fill="white"/>
<path d="M0.0732213 9.6209C0.0732213 8.7903 0.512549 8.375 1.3912 8.375L15.1568 8.375C16.0354 8.375 16.4747 8.7903 16.4747 9.6209V10.6592C16.4747 11.4898 16.0354 11.9051 15.1568 11.9051L3.95394 11.9051L3.95394 20.6264H12.7405C13.6191 20.6264 14.0584 21.0417 14.0584 21.8723V22.9105C14.0584 23.7411 13.6191 24.1564 12.7405 24.1564H3.95394L3.95394 33.3623H15.0835C15.9622 33.3623 16.4015 33.7776 16.4015 34.6082V35.6464C16.4015 36.477 15.9622 36.8923 15.0835 36.8923H1.31798C0.512548 36.8923 0 36.477 0 35.6464L0 9.6209H0.0732213Z" fill="white"/>
<path d="M24.3845 8.44336H25.7025C26.5811 8.44336 27.0205 8.85866 27.0205 9.68926L27.0205 22.2175L37.0517 9.27396C37.4179 8.72022 37.8572 8.44336 38.7358 8.44336L40.5664 8.44336C41.3718 8.44336 41.6647 9.34318 41.2253 9.89691L32.7317 20.2794L41.445 35.3687C41.8111 35.9916 41.5182 36.753 40.6396 36.753H38.9555C38.0768 36.753 37.6375 36.4762 37.2714 35.784L30.3154 23.325L27.0937 27.2703V35.5071C27.0937 36.3377 26.6544 36.753 25.7757 36.753H24.4577C23.6523 36.753 23.1398 36.3377 23.1398 35.5071L23.1398 9.62004C23.0665 8.78944 23.5791 8.44336 24.3845 8.44336Z" fill="white"/>
<path d="M51.8437 11.9051H46.2789C45.4003 11.9051 44.9609 11.4898 44.9609 10.6592V9.6209C44.9609 8.7903 45.4003 8.375 46.2789 8.375L61.3625 8.375C62.2411 8.375 62.6804 8.7903 62.6804 9.6209V10.6592C62.6804 11.4898 62.2411 11.9051 61.3625 11.9051L55.7244 11.9051V35.5772C55.7244 36.4078 55.2851 36.8231 54.4065 36.8231H53.0885C52.2098 36.8231 51.7705 36.4078 51.7705 35.5772L51.7705 11.9051H51.8437Z" fill="white"/>
<path d="M67.5078 16.6559C67.5078 10.8417 71.535 7.95898 76.6604 7.95898C81.7859 7.95898 85.6666 10.8661 85.6666 16.6803V35.5765C85.6666 36.4071 85.2273 36.8224 84.3487 36.8224H83.0307C82.152 36.8224 81.7127 36.4071 81.7127 35.5765V27.2013L71.4618 27.2013V35.5765C71.4618 36.4071 71.0224 36.8224 70.1438 36.8224H68.8258C67.9471 36.8224 67.5078 36.4071 67.5078 35.5765V16.6803V16.6559ZM71.535 23.7404H81.7859V17.0264C81.7859 12.8734 79.4428 11.4198 76.6604 11.4198C73.8048 11.4198 71.535 12.8042 71.535 17.0264V23.7404Z" fill="white"/>
<path d="M92.7699 0C89.7679 0 87.3516 2.28415 87.3516 5.12204C87.3516 7.95993 89.7679 10.2441 92.7699 10.2441C95.772 10.2441 98.1883 7.95993 98.1883 5.12204C98.2615 2.28415 95.772 0 92.7699 0ZM92.7699 8.2368C91.0126 8.2368 89.5482 6.85247 89.5482 5.19126C89.5482 3.53006 91.0126 2.14572 92.7699 2.14572C94.5272 2.14572 95.9916 3.53006 95.9916 5.19126C96.0648 6.85247 94.6004 8.2368 92.7699 8.2368Z" fill="white"/>
</svg>
