<svg width="154" height="78" viewBox="0 0 154 78" fill="none" xmlns="http://www.w3.org/2000/svg">
<path d="M2.03299 77.7299H1.14349V68.292H2.03299V77.7299Z" fill="#252627"/>
<path d="M4.68186 77.7299H3.79891V68.292H4.68186L10.2151 76.1732H10.2608V68.292H11.1438V77.7299H10.2805L4.72765 69.8421H4.68186V77.7299Z" fill="#252627"/>
<path d="M12.4584 75.166H13.3545C13.4024 75.7329 13.6706 76.1929 14.1589 76.546C14.6473 76.8949 15.2599 77.0693 15.9968 77.0693C16.7032 77.0693 17.2831 76.897 17.7365 76.5526C18.1944 76.2081 18.4233 75.7699 18.4233 75.238C18.4233 74.7976 18.2641 74.44 17.9458 74.1653C17.6275 73.8863 17.1174 73.6574 16.4154 73.4786L15.2446 73.1777C14.3682 72.9554 13.7273 72.6501 13.3218 72.2621C12.9206 71.874 12.72 71.3704 12.72 70.7512C12.72 69.9925 13.0253 69.369 13.6357 68.8807C14.2461 68.388 15.0179 68.1416 15.951 68.1416C16.8667 68.1416 17.6275 68.3858 18.2336 68.8741C18.8441 69.3581 19.1624 69.9751 19.1885 70.7251H18.2925C18.2489 70.1931 18.0112 69.7658 17.5796 69.4431C17.1479 69.1161 16.5963 68.9526 15.9248 68.9526C15.2664 68.9526 14.7214 69.1183 14.2897 69.4497C13.8624 69.7767 13.6488 70.1997 13.6488 70.7185C13.6488 71.124 13.8036 71.4554 14.1132 71.7127C14.4227 71.9656 14.9263 72.1814 15.624 72.3602L16.6443 72.6218C17.5948 72.8616 18.2816 73.1777 18.7045 73.5702C19.1275 73.9626 19.3389 74.4858 19.3389 75.1399C19.3389 75.9683 19.0294 76.6333 18.4102 77.1347C17.791 77.6318 16.9604 77.8803 15.9183 77.8803C14.9329 77.8803 14.1219 77.6318 13.4853 77.1347C12.8487 76.6333 12.5064 75.977 12.4584 75.166Z" fill="#252627"/>
<path d="M21.5365 68.292V74.3812C21.5365 75.1835 21.7829 75.8288 22.2756 76.3171C22.7683 76.8055 23.442 77.0497 24.2966 77.0497C25.1512 77.0497 25.8249 76.8055 26.3176 76.3171C26.8103 75.8288 27.0566 75.1835 27.0566 74.3812V68.292H27.9527V74.4335C27.9527 75.4625 27.6235 76.2953 26.9651 76.9319C26.3067 77.5642 25.4172 77.8803 24.2966 77.8803C23.176 77.8803 22.2865 77.5642 21.6281 76.9319C20.9741 76.2953 20.647 75.4625 20.647 74.4335V68.292H21.5365Z" fill="#252627"/>
<path d="M30.6016 69.09V73.0731H33.015C33.6995 73.0731 34.2315 72.8987 34.6108 72.5498C34.9945 72.201 35.1864 71.7105 35.1864 71.0783C35.1864 70.4547 34.9902 69.9686 34.5978 69.6197C34.2097 69.2666 33.6712 69.09 32.9823 69.09H30.6016ZM30.6016 73.8645V77.7299H29.7121V68.292H33.0869C34.0069 68.292 34.7395 68.5427 35.2845 69.0442C35.8339 69.5413 36.1086 70.2106 36.1086 71.0521C36.1086 71.7192 35.9298 72.2904 35.5723 72.7657C35.2147 73.241 34.7198 73.5593 34.0876 73.7206L36.3702 77.7299H35.3303L33.1589 73.8645H30.6016Z" fill="#252627"/>
<path d="M43.8328 77.7299L42.7864 74.839H38.8229L37.7764 77.7299H36.828L40.3599 68.292H41.2494L44.7747 77.7299H43.8328ZM40.785 69.3974L39.091 74.0672H42.5182L40.8242 69.3974H40.785Z" fill="#252627"/>
<path d="M46.6975 77.7299H45.8146V68.292H46.6975L52.2307 76.1732H52.2765V68.292H53.1595V77.7299H52.2961L46.7433 69.8421H46.6975V77.7299Z" fill="#252627"/>
<path d="M58.7581 77.8803C57.4718 77.8803 56.4493 77.4399 55.6906 76.5591C54.9319 75.674 54.5526 74.4836 54.5526 72.9881C54.5526 71.5099 54.9319 70.3326 55.6906 69.4562C56.4537 68.5798 57.4762 68.1416 58.7581 68.1416C59.4165 68.1416 60.0204 68.2746 60.5698 68.5406C61.1235 68.8065 61.577 69.1793 61.9302 69.659C62.2834 70.1386 62.5014 70.6815 62.5842 71.2875H61.6882C61.5574 70.6073 61.2195 70.0514 60.6744 69.6197C60.1294 69.1881 59.4906 68.9722 58.7581 68.9722C57.7552 68.9722 56.9551 69.3363 56.3577 70.0645C55.7647 70.7883 55.4682 71.7628 55.4682 72.9881C55.4682 74.2307 55.7647 75.2183 56.3577 75.9509C56.9551 76.6834 57.7574 77.0497 58.7646 77.0497C59.5189 77.0497 60.1599 76.86 60.6875 76.4806C61.2151 76.1013 61.5487 75.5868 61.6882 74.9371H62.5842C62.4185 75.8571 61.9956 76.5787 61.3154 77.102C60.6352 77.6209 59.7827 77.8803 58.7581 77.8803Z" fill="#252627"/>
<path d="M69.6021 76.9188V77.7299H63.9054V68.292H69.6021V69.103H64.7949V72.4975H69.3601V73.2955H64.7949V76.9188H69.6021Z" fill="#252627"/>
<path d="M77.9215 77.8803C76.6352 77.8803 75.6127 77.4399 74.854 76.5591C74.0954 75.674 73.716 74.4836 73.716 72.9881C73.716 71.5099 74.0954 70.3326 74.854 69.4562C75.6171 68.5798 76.6396 68.1416 77.9215 68.1416C78.5799 68.1416 79.1838 68.2746 79.7332 68.5406C80.287 68.8065 80.7404 69.1793 81.0936 69.659C81.4468 70.1386 81.6648 70.6815 81.7477 71.2875H80.8516C80.7208 70.6073 80.3829 70.0514 79.8379 69.6197C79.2928 69.1881 78.654 68.9722 77.9215 68.9722C76.9186 68.9722 76.1185 69.3363 75.5212 70.0645C74.9282 70.7883 74.6317 71.7628 74.6317 72.9881C74.6317 74.2307 74.9282 75.2183 75.5212 75.9509C76.1185 76.6834 76.9208 77.0497 77.928 77.0497C78.6824 77.0497 79.3233 76.86 79.8509 76.4806C80.3785 76.1013 80.7121 75.5868 80.8516 74.9371H81.7477C81.582 75.8571 81.159 76.5787 80.4788 77.102C79.7986 77.6209 78.9462 77.8803 77.9215 77.8803Z" fill="#252627"/>
<path d="M86.9735 68.1416C88.2903 68.1416 89.3345 68.5798 90.1063 69.4562C90.8781 70.3326 91.264 71.5186 91.264 73.0142C91.264 74.5098 90.8781 75.6958 90.1063 76.5722C89.3345 77.4443 88.2903 77.8803 86.9735 77.8803C85.6566 77.8803 84.6124 77.4443 83.8406 76.5722C83.0732 75.6958 82.6895 74.5098 82.6895 73.0142C82.6895 71.5186 83.0754 70.3326 83.8471 69.4562C84.6189 68.5798 85.661 68.1416 86.9735 68.1416ZM89.4327 70.0645C88.8266 69.3363 88.0068 68.9722 86.9735 68.9722C85.9401 68.9722 85.1203 69.3363 84.5143 70.0645C83.9082 70.7927 83.6051 71.7759 83.6051 73.0142C83.6051 74.2482 83.9082 75.2292 84.5143 75.9574C85.1247 76.6856 85.9444 77.0497 86.9735 77.0497C88.0068 77.0497 88.8266 76.6856 89.4327 75.9574C90.0431 75.2292 90.3483 74.2482 90.3483 73.0142C90.3483 71.7759 90.0431 70.7927 89.4327 70.0645Z" fill="#252627"/>
<path d="M101.748 68.292V77.7299H100.911V69.986H100.872L97.5886 77.6841H96.8102L93.5335 69.986H93.4943V77.7299H92.6571V68.292H93.6839L97.1831 76.5526H97.2223L100.715 68.292H101.748Z" fill="#252627"/>
<path d="M103.514 68.292H106.863C107.761 68.292 108.489 68.5624 109.047 69.103C109.61 69.6437 109.891 70.3523 109.891 71.2287C109.891 72.1051 109.61 72.8158 109.047 73.3609C108.485 73.9015 107.755 74.1719 106.856 74.1719H104.404V77.7299H103.514V68.292ZM104.404 69.09V73.3739H106.654C107.377 73.3739 107.944 73.1843 108.354 72.8049C108.768 72.4256 108.975 71.9002 108.975 71.2287C108.975 70.5572 108.77 70.034 108.361 69.659C107.951 69.2796 107.382 69.09 106.654 69.09H104.404Z" fill="#252627"/>
<path d="M116.602 77.7299L115.555 74.839H111.592L110.545 77.7299H109.597L113.129 68.292H114.018L117.543 77.7299H116.602ZM113.554 69.3974L111.86 74.0672H115.287L113.593 69.3974H113.554Z" fill="#252627"/>
<path d="M119.466 77.7299H118.583V68.292H119.466L124.999 76.1732H125.045V68.292H125.928V77.7299H125.065L119.512 69.8421H119.466V77.7299Z" fill="#252627"/>
<path d="M131.252 77.7299H130.356V73.6486L126.975 68.292H127.995L130.788 72.7722H130.82L133.613 68.292H134.634L131.252 73.6486V77.7299Z" fill="#252627"/>
<path d="M0.114436 15.037C0.114436 13.7389 0.801049 13.0898 2.17427 13.0898L23.6881 13.0898C25.0613 13.0898 25.7479 13.7389 25.7479 15.037V16.6597C25.7479 17.9578 25.0613 18.6069 23.6881 18.6069L6.17951 18.6069L6.17951 32.2372H19.9117C21.285 32.2372 21.9716 32.8862 21.9716 34.1844V35.807C21.9716 37.1052 21.285 37.7542 19.9117 37.7542H6.17951L6.17951 52.1418L23.5737 52.1418C24.9469 52.1418 25.6335 52.7908 25.6335 54.089V55.7116C25.6335 57.0097 24.9469 57.6588 23.5737 57.6588L2.05984 57.6588C0.801049 57.6588 0 57.0097 0 55.7116L0 15.037H0.114436Z" fill="#252627"/>
<path d="M38.1068 13.1973H40.1667C41.5399 13.1973 42.2265 13.8463 42.2265 15.1445V34.7245L57.9041 14.4954C58.4763 13.63 59.1629 13.1973 60.5361 13.1973H63.397C64.6558 13.1973 65.1135 14.6036 64.4269 15.469L51.1524 31.6956L64.7702 55.2782C65.3424 56.2518 64.8847 57.4417 63.5114 57.4417H60.8794C59.5062 57.4417 58.8196 57.009 58.2474 55.9272L47.3761 36.4553L42.3409 42.6214V55.4945C42.3409 56.7926 41.6543 57.4417 40.2811 57.4417H38.2213C36.9625 57.4417 36.1614 56.7926 36.1614 55.4945L36.1614 15.0363C36.047 13.7381 36.848 13.1973 38.1068 13.1973Z" fill="#252627"/>
<path d="M81.0205 18.6069H72.3234C70.9502 18.6069 70.2635 17.9578 70.2635 16.6597V15.037C70.2635 13.7389 70.9502 13.0898 72.3234 13.0898L95.8971 13.0898C97.2703 13.0898 97.9569 13.7389 97.9569 15.037V16.6597C97.9569 17.9578 97.2703 18.6069 95.8971 18.6069H87.0856V55.6034C87.0856 56.9016 86.3989 57.5506 85.0257 57.5506H82.9659C81.5927 57.5506 80.906 56.9016 80.906 55.6034V18.6069H81.0205Z" fill="#252627"/>
<path d="M105.51 26.0335C105.51 16.9467 111.804 12.4414 119.814 12.4414C127.825 12.4414 133.89 16.9848 133.89 26.0717V55.6041C133.89 56.9022 133.203 57.5513 131.83 57.5513H129.77C128.397 57.5513 127.71 56.9022 127.71 55.6041V42.5147H111.689V55.6041C111.689 56.9022 111.003 57.5513 109.629 57.5513H107.57C106.196 57.5513 105.51 56.9022 105.51 55.6041V26.0717V26.0335ZM111.804 37.1058H127.825V26.6126C127.825 20.122 124.163 17.8503 119.814 17.8503C115.351 17.8503 111.804 20.0138 111.804 26.6126V37.1058Z" fill="#252627"/>
<path d="M144.988 0C140.296 0 136.52 3.56984 136.52 8.00511C136.52 12.4404 140.296 16.0102 144.988 16.0102C149.68 16.0102 153.457 12.4404 153.457 8.00511C153.571 3.56984 149.68 0 144.988 0ZM144.988 12.8731C142.242 12.8731 139.953 10.7095 139.953 8.11329C139.953 5.51704 142.242 3.35349 144.988 3.35349C147.735 3.35349 150.023 5.51704 150.023 8.11329C150.138 10.7095 147.849 12.8731 144.988 12.8731Z" fill="#252627"/>
</svg>
